<svg width="21" height="21" viewBox="0 0 21 21" fill="none" xmlns="http://www.w3.org/2000/svg">
<path fill-rule="evenodd" clip-rule="evenodd" d="M15.9134 3.75323C14.4647 2.30448 12.0353 2.30448 10.5866 3.75323L9.25592 5.08388C8.93049 5.40932 8.40285 5.40932 8.07741 5.08388C7.75197 4.75844 7.75197 4.2308 8.07741 3.90537L9.40806 2.57472C11.5077 0.475092 14.9923 0.475092 17.0919 2.57472C19.1916 4.67435 19.1916 8.15898 17.0919 10.2586L15.7613 11.5893C15.4359 11.9147 14.9082 11.9147 14.5828 11.5893C14.2573 11.2638 14.2573 10.7362 14.5828 10.4107L15.9134 9.0801C17.3622 7.63134 17.3622 5.20199 15.9134 3.75323ZM13.4226 6.24408C13.748 6.56951 13.748 7.09715 13.4226 7.42259L8.42259 12.4226C8.09715 12.748 7.56951 12.748 7.24408 12.4226C6.91864 12.0972 6.91864 11.5695 7.24408 11.2441L12.2441 6.24408C12.5695 5.91864 13.0972 5.91864 13.4226 6.24408ZM6.08388 7.07741C6.40932 7.40285 6.40932 7.93049 6.08388 8.25592L4.75323 9.58657C3.30448 11.0353 3.30448 13.4647 4.75323 14.9134C6.20199 16.3622 8.63134 16.3622 10.0801 14.9134L11.4107 13.5828C11.7362 13.2573 12.2638 13.2573 12.5893 13.5828C12.9147 13.9082 12.9147 14.4359 12.5893 14.7613L11.2586 16.0919C9.15898 18.1916 5.67435 18.1916 3.57472 16.0919C1.47509 13.9923 1.47509 10.5077 3.57472 8.40806L4.90537 7.07741C5.2308 6.75197 5.75844 6.75197 6.08388 7.07741Z" fill="#203800"/>
</svg>
