<svg width="21" height="21" viewBox="0 0 21 21" fill="none" xmlns="http://www.w3.org/2000/svg">
<path d="M13.1667 7.33333C12.8334 7 12.25 7.08333 12 7.41667C11.6667 7.75 11.75 8.33333 12.0834 8.58333C12.8334 9.16667 13.25 10.0833 13.25 11.0833C13.25 12.8333 11.8334 14.3333 10 14.3333C8.16671 14.3333 6.75004 12.8333 6.75004 11C6.75004 10.0833 7.16671 9.16667 7.91671 8.5C8.25004 8.16667 8.33337 7.66667 8.00004 7.33333C7.66671 7 7.16671 6.91667 6.83337 7.25C5.75004 8.25 5.08337 9.58333 5.08337 11C5.08337 13.6667 7.25004 15.9167 10 15.9167C12.6667 15.9167 14.9167 13.75 14.9167 11C14.9167 9.58333 14.25 8.25 13.1667 7.33333Z" fill="#203800"/>
<path d="M10 2.66667C5.41669 2.66667 1.66669 6.41667 1.66669 11C1.66669 15.5833 5.41669 19.3333 10 19.3333C14.5834 19.3333 18.3334 15.5833 18.3334 11C18.3334 6.41667 14.5834 2.66667 10 2.66667ZM10 17.6667C6.33335 17.6667 3.33335 14.6667 3.33335 11C3.33335 7.33333 6.33335 4.33333 10 4.33333C13.6667 4.33333 16.6667 7.33333 16.6667 11C16.6667 14.6667 13.6667 17.6667 10 17.6667Z" fill="#203800"/>
<path d="M10 10.25C10.5 10.25 10.8334 9.91667 10.8334 9.41667V6.41667C10.8334 5.91667 10.5 5.58333 10 5.58333C9.50002 5.58333 9.16669 5.91667 9.16669 6.41667V9.5C9.16669 9.91666 9.50002 10.25 10 10.25Z" fill="#203800"/>
</svg>
