<svg width="19" height="21" viewBox="0 0 19 21" fill="none" xmlns="http://www.w3.org/2000/svg">
<path fill-rule="evenodd" clip-rule="evenodd" d="M8.20334 2.42995C9.12797 1.90796 10.2566 1.90796 11.1813 2.42995C11.1882 2.43387 11.1951 2.43789 11.2019 2.44202L15.9616 5.32844C16.9009 5.86395 17.4231 6.83153 17.4231 7.88142V13.1967C17.4231 14.2119 16.927 15.2064 16.0258 15.6793L11.2788 18.558C11.272 18.5621 11.2651 18.5661 11.2582 18.57C10.3335 19.092 9.2049 19.092 8.28026 18.57C8.27333 18.5661 8.26645 18.5621 8.25964 18.558L3.49987 15.6715C2.56064 15.136 2.03845 14.1685 2.03845 13.1186V7.88142C2.03845 6.8325 2.55968 5.86574 3.49729 5.32992L8.17798 2.44492C8.18634 2.43977 8.1948 2.43478 8.20334 2.42995ZM8.96202 3.7901L4.28354 6.67375C4.27518 6.6789 4.26672 6.68389 4.25818 6.68872C3.81982 6.93618 3.57691 7.37211 3.57691 7.88142V13.1186C3.57691 13.6279 3.81982 14.0638 4.25818 14.3113C4.26511 14.3152 4.27199 14.3192 4.2788 14.3234L9.03678 17.2087C9.49191 17.4614 10.0465 17.4614 10.5017 17.2087L15.2596 14.3234C15.276 14.3134 15.2928 14.3041 15.3098 14.2954C15.6217 14.137 15.8846 13.7345 15.8846 13.1967V7.88142C15.8846 7.37211 15.6417 6.93618 15.2033 6.68872C15.1964 6.6848 15.1895 6.68078 15.1827 6.67664L10.4247 3.79131C9.97035 3.53902 9.41674 3.53862 8.96202 3.7901ZM9.73075 8.89758C8.8386 8.89758 8.11537 9.63251 8.11537 10.5391C8.11537 11.4457 8.8386 12.1806 9.73075 12.1806C10.6229 12.1806 11.3461 11.4457 11.3461 10.5391C11.3461 9.63251 10.6229 8.89758 9.73075 8.89758ZM6.57691 10.5391C6.57691 8.7691 7.98893 7.33425 9.73075 7.33425C11.4726 7.33425 12.8846 8.7691 12.8846 10.5391C12.8846 12.3091 11.4726 13.7439 9.73075 13.7439C7.98893 13.7439 6.57691 12.3091 6.57691 10.5391Z" fill="#203800"/>
</svg>
