<svg width="22" height="19" viewBox="0 0 22 19" fill="none" xmlns="http://www.w3.org/2000/svg">
<path d="M18.1029 14.3631H16.25C15.9412 13.3452 14.9375 12.6667 13.7022 12.6667C12.2353 12.6667 11 13.7524 11 15.0417C11 16.331 12.2353 17.4167 13.7022 17.4167C14.9375 17.4167 15.9412 16.7381 16.25 15.7202H18.1029C18.5662 15.7202 18.875 15.381 18.875 15.0417C18.875 14.6345 18.5662 14.3631 18.1029 14.3631ZM13.7022 16.0595C13.0846 16.0595 12.5441 15.5845 12.5441 15.0417C12.5441 14.4988 13.0846 14.0238 13.7022 14.0238C14.3199 14.0238 14.8603 14.4988 14.8603 15.0417C14.8603 15.5845 14.3199 16.0595 13.7022 16.0595Z" fill="#8FFF00"/>
<path d="M9.38032 14.25H3.86968C3.42287 14.25 3.125 14.6458 3.125 15.0417C3.125 15.5167 3.49734 15.8333 3.86968 15.8333H9.38032C9.82713 15.8333 10.125 15.4375 10.125 15.0417C10.125 14.5667 9.75266 14.25 9.38032 14.25Z" fill="#8FFF00"/>
<path d="M3.86968 4.75001H9.38032C9.82713 4.75001 10.125 4.35417 10.125 3.95834C10.125 3.56251 9.75266 3.16667 9.38032 3.16667H3.86968C3.42287 3.16667 3.125 3.56251 3.125 3.95834C3.125 4.35417 3.49734 4.75001 3.86968 4.75001Z" fill="#8FFF00"/>
<path d="M13.7022 6.33334C14.9375 6.33334 15.9412 5.65476 16.25 4.63691H18.1029C18.5662 4.63691 18.875 4.29762 18.875 3.95834C18.875 3.61905 18.489 3.27976 18.1029 3.27976H16.25C15.9412 2.26191 14.9375 1.58334 13.7022 1.58334C12.2353 1.58334 11 2.66905 11 3.95834C11 5.24762 12.2353 6.33334 13.7022 6.33334ZM13.7022 2.94048C14.3199 2.94048 14.8603 3.41548 14.8603 3.95834C14.8603 4.50119 14.3199 4.97619 13.7022 4.97619C13.0846 4.97619 12.5441 4.50119 12.5441 3.95834C12.5441 3.41548 13.0846 2.94048 13.7022 2.94048Z" fill="#8FFF00"/>
<path d="M3.89706 10.1786H5.75C6.05882 11.1286 7.0625 11.875 8.29779 11.875C9.76471 11.875 11 10.7893 11 9.5C11 8.21071 9.76471 7.125 8.29779 7.125C7.0625 7.125 6.05882 7.80357 5.75 8.82143H3.89706C3.43382 8.82143 3.125 9.16071 3.125 9.5C3.125 9.83929 3.51103 10.1786 3.89706 10.1786ZM8.29779 8.48214C8.91544 8.48214 9.45588 8.95714 9.45588 9.5C9.45588 10.0429 8.91544 10.5179 8.29779 10.5179C7.68015 10.5179 7.13971 10.0429 7.13971 9.5C7.13971 8.95714 7.68015 8.48214 8.29779 8.48214Z" fill="#8FFF00"/>
<path d="M18.1223 8.70834H12.6277C12.1761 8.70834 11.875 9.10417 11.875 9.5C11.875 9.89584 12.2513 10.2917 12.6277 10.2917H18.1223C18.5739 10.2917 18.875 9.89584 18.875 9.5C18.875 9.10417 18.5739 8.70834 18.1223 8.70834Z" fill="#8FFF00"/>
</svg>
