<svg width="21" height="21" viewBox="0 0 21 21" fill="none" xmlns="http://www.w3.org/2000/svg">
<path d="M13.6667 6.83333C13.3334 6.5 12.75 6.58333 12.5 6.91667C12.1667 7.25 12.25 7.83333 12.5834 8.08333C13.3334 8.66667 13.75 9.58333 13.75 10.5833C13.75 12.3333 12.3334 13.8333 10.5 13.8333C8.66671 13.8333 7.25004 12.3333 7.25004 10.5C7.25004 9.58333 7.66671 8.66667 8.41671 8C8.75004 7.66667 8.83337 7.16667 8.50004 6.83333C8.16671 6.5 7.66671 6.41667 7.33337 6.75C6.25004 7.75 5.58337 9.08333 5.58337 10.5C5.58337 13.1667 7.75004 15.4167 10.5 15.4167C13.1667 15.4167 15.4167 13.25 15.4167 10.5C15.4167 9.08333 14.75 7.75 13.6667 6.83333Z" fill="#8FFF00"/>
<path d="M10.5 2.16667C5.91669 2.16667 2.16669 5.91667 2.16669 10.5C2.16669 15.0833 5.91669 18.8333 10.5 18.8333C15.0834 18.8333 18.8334 15.0833 18.8334 10.5C18.8334 5.91667 15.0834 2.16667 10.5 2.16667ZM10.5 17.1667C6.83335 17.1667 3.83335 14.1667 3.83335 10.5C3.83335 6.83333 6.83335 3.83333 10.5 3.83333C14.1667 3.83333 17.1667 6.83333 17.1667 10.5C17.1667 14.1667 14.1667 17.1667 10.5 17.1667Z" fill="#8FFF00"/>
<path d="M10.5 9.75C11 9.75 11.3334 9.41667 11.3334 8.91667V5.91667C11.3334 5.41667 11 5.08333 10.5 5.08333C10 5.08333 9.66669 5.41667 9.66669 5.91667V9C9.66669 9.41666 10 9.75 10.5 9.75Z" fill="#8FFF00"/>
</svg>
