<svg width="14" height="15" viewBox="0 0 14 15" fill="none" xmlns="http://www.w3.org/2000/svg">
<g id="Group">
<path id="Vector" d="M6.99999 0.833252C3.33333 0.833252 0.333328 3.83325 0.333328 7.49992C0.333328 11.1666 3.33333 14.1666 6.99999 14.1666C10.6667 14.1666 13.6667 11.1666 13.6667 7.49992C13.6667 3.83325 10.6667 0.833252 6.99999 0.833252ZM6.99999 12.8333C4.06666 12.8333 1.66666 10.4333 1.66666 7.49992C1.66666 4.56659 4.06666 2.16659 6.99999 2.16659C9.93333 2.16659 12.3333 4.56659 12.3333 7.49992C12.3333 10.4333 9.93333 12.8333 6.99999 12.8333Z" fill="white"/>
<path id="Vector_2" d="M7.86666 6.8332H6.13333C5.8 6.8332 5.53333 6.56654 5.53333 6.2332C5.53333 5.89987 5.8 5.6332 6.13333 5.6332H8.6C9 5.6332 9.26666 5.36654 9.26666 4.96654C9.26666 4.56654 9 4.29987 8.6 4.29987H7.66666V3.69987C7.66666 3.29987 7.4 3.0332 7 3.0332C6.6 3.0332 6.33333 3.29987 6.33333 3.69987V4.29987H6.13333C5.06666 4.29987 4.2 5.16654 4.2 6.2332C4.2 7.29987 5.06666 8.16654 6.13333 8.16654H7.8C8.13333 8.16654 8.4 8.4332 8.4 8.76654C8.4 9.09987 8.13333 9.36654 7.8 9.36654H5.33333C4.93333 9.36654 4.66666 9.6332 4.66666 10.0332C4.66666 10.4332 4.93333 10.6999 5.33333 10.6999H6.33333V11.2999C6.33333 11.6999 6.6 11.9665 7 11.9665C7.4 11.9665 7.66666 11.6999 7.66666 11.2999V10.6999H7.86666C8.93333 10.6999 9.8 9.8332 9.8 8.76654C9.8 7.69987 8.93333 6.8332 7.86666 6.8332Z" fill="white"/>
</g>
</svg>
